HIERARCHY
ROOT Hips
{
  OFFSET 0 0 0
  CHANNELS 6 Xposition Yposition Zposition Zrotation Yrotation Xrotation
  JOINT LeftThigh
  {
    OFFSET 8.409438 0 -5.917753
    CHANNELS 3 Zrotation Yrotation Xrotation
    JOINT LeftLeg
    {
      OFFSET 0 0 -42.358652
      CHANNELS 3 Zrotation Yrotation Xrotation
      JOINT LeftFoot
      {
        OFFSET 0 0 -39.357303
        CHANNELS 3 Zrotation Yrotation Xrotation
      }
    }
  }
  JOINT RightThigh
  {
    OFFSET -8.409438 0 -5.917753
    CHANNELS 3 Zrotation Yrotation Xrotation
    JOINT RightLeg
    {
      OFFSET 0 0 -42.358652
      CHANNELS 3 Zrotation Yrotation Xrotation
      JOINT RightFoot
      {
        OFFSET 0 0 -39.357303
        CHANNELS 3 Zrotation Yrotation Xrotation
      }
    }
  }
  JOINT SpineLow
  {
    OFFSET 0 0 4.719101
    CHANNELS 3 Zrotation Yrotation Xrotation
    JOINT SpineMid
    {
      OFFSET 0 0 12.899191
      CHANNELS 3 Zrotation Yrotation Xrotation
      JOINT Chest
      {
        OFFSET 0 0 12.899191
        CHANNELS 3 Zrotation Yrotation Xrotation
        JOINT LeftShoulder
        {
          OFFSET 7.550562 1.41573 9.438202
          CHANNELS 3 Zrotation Yrotation Xrotation
          JOINT LeftArm
          {
            OFFSET 9.155056 0 4.247191
            CHANNELS 3 Zrotation Yrotation Xrotation
            JOINT LeftForearm
            {
              OFFSET 0 0 25.771955
              CHANNELS 3 Zrotation Yrotation Xrotation
              JOINT LeftHand
              {
                OFFSET 0 0 25.197169
                CHANNELS 3 Zrotation Yrotation Xrotation
              }
            }
          }
        }
        JOINT RightShoulder
        {
          OFFSET -7.550562 1.41573 9.438202
          CHANNELS 3 Zrotation Yrotation Xrotation
          JOINT RightArm
          {
            OFFSET -9.155056 0 4.247191
            CHANNELS 3 Zrotation Yrotation Xrotation
            JOINT RightForearm
            {
              OFFSET 0 0 -25.771955
              CHANNELS 3 Zrotation Yrotation Xrotation
              JOINT RightHand
              {
                OFFSET 0 0 -25.197169
                CHANNELS 3 Zrotation Yrotation Xrotation
              }
            }
          }
        }
        JOINT Neck
        {
          OFFSET 0 0 15.101124
          CHANNELS 3 Zrotation Yrotation Xrotation
          JOINT Head
          {
            OFFSET 0 0 11.325843
            CHANNELS 3 Zrotation Yrotation Xrotation
            End Site
            {
              OFFSET 0 0 14.157303
            }
          }
        }
      }
    }
  }
}
MOTION
Frames: 12
Frame Time: 0.0
0.0  89.887642  0.0  6.077395  -38.167695  -98.994779  22.383662  -12.513301  5.83691  -3.380203  0.945614  18.660692  1.028054  -1.201653  4.039392  6.766894  8.596654  -17.272644  0.944597  5.508116  23.130415  1.99821  1.253427  -1.139825  -3.36826  0.444479  0.730844  -9.193508  1.313759  1.931645  -9.193508  1.313759  1.931646  -12.896874  -0.19376  1.687142  -14.622176  60.529633  57.587997  -24.760822  -8.678288  93.810056  96.373867  8.812364  -11.425532  -12.570141  -4.050394  23.962001  55.098734  16.833628  43.565073  12.75273  -17.519662  -119.612699  87.650784  8.104986  -31.151847  17.528477  2.793101  4.495174  13.124069  2.226092  3.293733  
0.0  89.887642  0.0  5.984186  -37.721463  -98.949231  22.127876  -12.597395  5.620208  -3.593969  1.118396  18.921543  1.047457  -1.237545  4.125818  6.451506  8.657934  -17.263016  0.791917  5.48043  23.213317  2.003594  1.264171  -1.123934  -3.38864  0.444189  0.739789  -9.249039  1.314796  1.955655  -9.249039  1.314796  1.955655  -12.94473  -0.136453  1.695881  -14.604711  60.560533  57.506365  -24.819776  -8.561806  93.691875  96.322224  8.829824  -11.384719  -12.532384  -4.075888  23.898222  55.189654  16.924893  43.499806  12.845191  -17.696833  -119.591437  87.679198  7.991878  -31.029617  17.49623  2.79213  4.443973  13.10011  2.223646  3.255466  
0.0  89.887642  0.0  5.90485  -37.36594  -98.827994  22.080689  -12.673447  5.40214  -3.660903  1.321873  19.241968  0.902844  -1.276  4.047093  6.178172  8.745242  -17.329394  0.76345  5.437035  23.301813  1.951049  1.256411  -1.105423  -3.421213  0.427294  0.737042  -9.338571  1.269278  1.949852  -9.33857  1.269278  1.949852  -12.537247  0.098661  1.724488  -14.902047  60.566245  57.335944  -24.806297  -8.494038  93.625165  96.324786  8.633503  -11.377343  -12.281897  -3.956877  23.746205  54.991409  16.992849  43.082952  12.95052  -17.983193  -119.701106  87.808031  7.43033  -31.210462  17.658541  2.848435  4.420703  13.221411  2.266466  3.235655  
0.0  89.887642  0.0  5.837982  -36.936283  -98.819851  21.85257  -12.731166  5.239561  -3.870333  1.450609  19.437459  0.903168  -1.312126  4.126246  5.701299  8.77161  -17.314467  0.758082  5.419555  23.392277  1.964222  1.271373  -1.095305  -3.425774  0.43151  0.75146  -9.350635  1.282939  1.98849  -9.350635  1.282939  1.98849  -12.58926  0.160716  1.731419  -15.03408  60.700226  57.101268  -24.800413  -8.572513  93.471502  96.326197  8.641719  -11.232159  -12.191508  -4.001243  23.638962  55.133098  17.03676  42.942776  12.970533  -18.096411  -119.610632  87.801754  7.307039  -31.172192  17.601059  2.818217  4.367793  13.178805  2.24182  3.197078  
0.0  89.887642  0.0  5.779613  -36.569069  -98.70756  21.815494  -12.800936  5.110914  -4.008065  1.619173  19.57306  0.905098  -1.313701  4.123853  5.211206  8.81088  -17.375596  0.894549  5.395754  23.440844  1.980456  1.26708  -1.056646  -3.427754  0.4216  0.753159  -9.356274  1.256214  1.994477  -9.356275  1.256214  1.994477  -12.275667  0.378761  1.770058  -15.560184  60.787119  56.712208  -24.734312  -8.641864  93.371879  96.402153  8.305325  -11.208728  -11.949179  -3.924994  23.538299  55.034706  17.108696  42.459408  12.951084  -18.303382  -119.665319  87.895621  6.821425  -31.342181  17.648631  2.831535  4.328365  13.214528  2.251029  3.166888  
0.0  89.887642  0.0  5.737132  -36.144697  -98.738219  21.576082  -12.847977  5.072862  -4.127599  1.704665  19.654054  0.889396  -1.367963  4.152754  4.563008  8.838742  -17.350417  1.048378  5.339873  23.52014  2.012022  1.283121  -1.050068  -3.411868  0.430001  0.764522  -9.312397  1.280253  2.024613  -9.312397  1.280253  2.024613  -12.305213  0.478648  1.859148  -15.898747  61.00059  56.351526  -24.709332  -8.82351  93.193645  96.467867  8.285302  -11.038514  -11.883723  -3.978565  23.554221  55.258914  17.213468  42.210404  12.828026  -18.334458  -119.530279  87.856361  6.712784  -31.362881  17.540241  2.776723  4.308666  13.133819  2.208515  3.154171  
0.0  89.887642  0.0  5.70899  -35.838419  -98.718295  21.640168  -12.900452  5.112277  -4.150378  1.78329  19.701321  0.760427  -1.421954  4.051279  3.820297  8.831727  -17.442957  1.330171  5.287884  23.580218  2.125995  1.317909  -0.996989  -3.393159  0.422235  0.763102  -9.261495  1.258316  2.022206  -9.261496  1.258316  2.022206  -11.917045  0.771878  2.011836  -16.584514  61.179367  55.910944  -24.673297  -8.97547  93.060981  96.545193  7.895717  -10.99511  -11.633168  -3.99164  23.53185  54.916053  17.35414  41.525056  12.801132  -18.290077  -119.366179  87.890347  6.244519  -31.605617  17.553254  2.782619  4.334296  13.143418  2.213775  3.173181  
0.0  89.887642  0.0  5.677596  -35.403814  -98.776884  21.514126  -12.9326  5.174832  -4.32473  1.796241  19.637136  0.710538  -1.489951  4.057663  3.154927  8.879053  -17.40066  1.520184  5.22042  23.66477  2.142497  1.327496  -0.98987  -3.375151  0.424671  0.766215  -9.212144  1.264855  2.030723  -9.212144  1.264855  2.030722  -11.869913  0.979489  2.170644  -16.973263  61.47195  55.554907  -24.677245  -9.10195  92.862962  96.622531  7.83725  -10.908196  -11.569282  -4.002274  23.62844  55.203614  17.576065  41.248745  12.655373  -18.289187  -119.241577  87.826393  6.172593  -31.672977  17.476652  2.779865  4.382705  13.085796  2.212533  3.20992  
0.0  89.887642  0.0  5.615306  -35.017146  -98.736766  21.680088  -13.028456  5.266057  -4.445013  1.865144  19.576245  0.507418  -1.564109  3.876819  2.23023  8.777484  -17.497142  1.887609  5.182053  23.715331  2.21816  1.380976  -0.950175  -3.377085  0.403599  0.751331  -9.218292  1.205378  1.993003  -9.218292  1.205378  1.993003  -11.388333  1.372657  2.398332  -17.575049  61.740067  55.176228  -24.650504  -9.235826  92.676412  96.773262  7.738598  -10.947613  -11.376677  -4.06502  23.541077  54.975553  17.749681  40.754065  12.612675  -18.275597  -119.143263  87.847429  5.767472  -32.016649  17.656823  2.863727  4.513248  13.219583  2.280617  3.304676  
0.0  89.887642  0.0  5.553662  -34.518954  -98.781622  21.63944  -13.093708  5.344984  -4.716437  1.851904  19.434123  0.447777  -1.635478  3.873232  1.694502  8.824674  -17.374166  1.978084  5.145745  23.745295  2.22764  1.391093  -0.943228  -3.360629  0.396549  0.749823  -9.173531  1.185457  1.990183  -9.173531  1.185457  1.990183  -11.299139  1.635872  2.612995  -17.974104  62.08388  54.852704  -24.659119  -9.455695  92.505321  96.882047  7.713827  -10.933235  -11.269072  -4.141116  23.495184  55.207087  17.946417  40.603303  12.475294  -18.300288  -118.990709  87.731457  5.733924  -32.167335  17.61236  2.894585  4.611085  13.185529  2.306273  3.377395  
0.0  89.887642  0.0  5.442975  -34.058776  -98.715792  21.680842  -13.227578  5.338227  -4.823982  1.914993  19.387523  0.261295  -1.706447  3.714181  0.8807  8.697608  -17.421686  2.256351  5.151809  23.772419  2.368971  1.457492  -0.897978  -3.362154  0.364859  0.735393  -9.178807  1.097083  1.955167  -9.178808  1.097083  1.955167  -10.922078  2.006635  2.846008  -18.494151  62.479167  54.485131  -24.612743  -9.671105  92.351344  97.048221  7.657227  -10.856762  -11.178307  -4.233766  23.304119  55.004939  18.089767  40.147457  12.465046  -18.278621  -118.805996  87.724597  5.32399  -32.497397  17.821953  3.005173  4.783563  13.340865  2.395988  3.502646  
0.0  89.887642  0.0  5.351448  -33.519906  -98.747178  21.625418  -13.344885  5.379374  -5.073183  1.923321  19.275609  0.170152  -1.786095  3.713616  0.525844  8.755546  -17.264236  2.229112  5.133216  23.81075  2.341994  1.479612  -0.894868  -3.343417  0.351856  0.734086  -9.127961  1.060898  1.953717  -9.127961  1.060898  1.953717  -10.810495  2.301491  3.077432  -18.910539  62.861592  54.204535  -24.586359  -9.929811  92.179888  97.158544  7.625438  -10.672621  -11.052874  -4.325009  23.177427  55.211729  18.23066  40.003592  12.32701  -18.329432  -118.631128  87.622392  5.194683  -32.516176  17.754206  2.993963  4.914106  13.289588  2.390829  3.601269  
